<svg xmlns="http://www.w3.org/2000/svg" viewBox="0 0 24 24" fill="none" x="0px" y="0px"><path fill-rule="evenodd" clip-rule="evenodd" d="M7 2H21C21.5523 2 22 2.44772 22 3V21C22 21.5523 21.5523 22 21 22H7H6H3C2.44772 22 2 21.5523 2 21V3C2 2.44772 2.44772 2 3 2H6H7ZM6 3H3V21H6V3ZM7 21V3H21V21H7Z" fill="#EDE5E3"/><path d="M14.2765 12.4473L18.2765 14.9473C18.5235 15.0708 18.8238 14.9707 18.9473 14.7237C19.0708 14.4767 18.9707 14.1764 18.7237 14.0529L14.7237 11.5529C14.4767 11.4294 14.1764 11.5295 14.0529 11.7765C13.9294 12.0235 14.0295 12.3238 14.2765 12.4473Z" fill="#EDE5E3"/><path d="M14.7237 12.4473L18.7237 9.94732C18.9707 9.82383 19.0708 9.52349 18.9473 9.2765C18.8238 9.02951 18.5235 8.9294 18.2765 9.0529L14.2765 11.5529C14.0295 11.6764 13.9294 11.9767 14.0529 12.2237C14.1764 12.4707 14.4767 12.5708 14.7237 12.4473Z" fill="#EDE5E3"/></svg>
